<?xml version="1.0" encoding="iso-8859-1"?>
<!-- Generator: Adobe Illustrator 19.0.0, SVG Export Plug-In . SVG Version: 6.00 Build 0)  -->
<svg version="1.1" id="Layer_1" xmlns="http://www.w3.org/2000/svg" xmlns:xlink="http://www.w3.org/1999/xlink" x="0px" y="0px"
	 viewBox="0 0 512 512" style="enable-background:new 0 0 512 512;" xml:space="preserve">
<rect x="26.483" y="83.862" style="fill:#FFE182;" width="459.034" height="247.172"/>
<path style="fill:#464655;" d="M494.345,57.379H17.655C7.905,57.379,0,65.283,0,75.034v317.793c0,9.75,7.905,17.655,17.655,17.655
	h476.69c9.75,0,17.655-7.905,17.655-17.655V75.034C512,65.283,504.095,57.379,494.345,57.379z M485.517,331.034H26.483V83.862
	h459.034V331.034z"/>
<path style="fill:#C7CFE2;" d="M0,357.517v35.31c0,9.751,7.904,17.655,17.655,17.655h476.69c9.751,0,17.655-7.904,17.655-17.655
	v-35.31H0z"/>
<polygon style="fill:#AFB9D2;" points="326.621,481.103 185.379,481.103 194.207,410.483 317.793,410.483 "/>
<g>
	<polygon style="fill:#959CB3;" points="320,428.138 317.793,410.483 194.207,410.483 192,428.138 	"/>
	<circle style="fill:#959CB3;" cx="256" cy="384" r="13.241"/>
</g>
<path style="fill:#C7CFE2;" d="M326.621,489.931H185.379c-4.875,0-8.828-3.953-8.828-8.828l0,0c0-4.875,3.953-8.828,8.828-8.828
	h141.241c4.875,0,8.828,3.953,8.828,8.828l0,0C335.448,485.978,331.496,489.931,326.621,489.931z"/>
<path style="fill:#FF6464;" d="M361.931,331.034H150.069l8.489-212.215c0.19-4.734,4.083-8.474,8.821-8.474h177.244
	c4.738,0,8.631,3.741,8.821,8.474L361.931,331.034z"/>
<g>
	<polygon style="fill:#D2555A;" points="150.069,331.034 353.103,331.034 157.878,135.809 	"/>
	<path style="fill:#D2555A;" d="M300.138,145.655c-4.875,0-8.828-3.948-8.828-8.828V75.034c0-19.474-15.84-35.31-35.31-35.31
		s-35.31,15.837-35.31,35.31v61.793c0,4.879-3.953,8.828-8.828,8.828c-4.875,0-8.828-3.948-8.828-8.828V75.034
		c0-29.207,23.758-52.966,52.966-52.966s52.966,23.758,52.966,52.966v61.793C308.966,141.707,305.013,145.655,300.138,145.655z"/>
</g>
<path style="fill:#FFE182;" d="M291.31,251.586h-46.987c-7.263,0-13.698-4.362-16.396-11.104l-13.216-33.034h-2.849
	c-4.875,0-8.828-3.948-8.828-8.828c0-4.879,3.953-8.828,8.828-8.828h8.828c3.608,0,6.854,2.198,8.199,5.551l1.311,3.276h61.111
	c4.875,0,8.828,3.948,8.828,8.828v35.31C300.138,247.638,296.185,251.586,291.31,251.586z M237.259,216.276l7.06,17.655h38.164
	v-17.655H237.259z"/>
<circle style="fill:#FFC36E;" cx="238.345" cy="269.241" r="8.828"/>
<circle style="fill:#FFE182;" cx="291.31" cy="269.241" r="8.828"/>
<g>
	<path style="fill:#FFC36E;" d="M203.034,198.621c0,4.879,3.953,8.828,8.828,8.828h2.849l13.216,33.035
		c2.698,6.741,9.133,11.104,16.396,11.104h29.332L256,233.932h-11.681l-7.06-17.655h1.086l-26.483-26.483
		C206.987,189.793,203.034,193.741,203.034,198.621z"/>
	<path style="fill:#FFC36E;" d="M291.31,278.069c2.438,0,4.644-0.989,6.242-2.585L285.069,263c-1.598,1.597-2.587,3.804-2.587,6.241
		C282.483,274.116,286.435,278.069,291.31,278.069z"/>
</g>
<g>
</g>
<g>
</g>
<g>
</g>
<g>
</g>
<g>
</g>
<g>
</g>
<g>
</g>
<g>
</g>
<g>
</g>
<g>
</g>
<g>
</g>
<g>
</g>
<g>
</g>
<g>
</g>
<g>
</g>
</svg>
