<?xml version="1.0" encoding="UTF-8" standalone="no"?>
<!-- Created with Inkscape (http://www.inkscape.org/) -->

<svg
   xmlns:dc="http://purl.org/dc/elements/1.1/"
   xmlns:cc="http://creativecommons.org/ns#"
   xmlns:rdf="http://www.w3.org/1999/02/22-rdf-syntax-ns#"
   xmlns:svg="http://www.w3.org/2000/svg"
   xmlns="http://www.w3.org/2000/svg"
   xmlns:sodipodi="http://sodipodi.sourceforge.net/DTD/sodipodi-0.dtd"
   xmlns:inkscape="http://www.inkscape.org/namespaces/inkscape"
   width="114.18778mm"
   height="53.624199mm"
   viewBox="0 0 404.60238 190.007"
   id="svg5857"
   version="1.1"
   inkscape:version="0.91 r13725"
   sodipodi:docname="drawing.svg">
  <defs
     id="defs5859">
    <clipPath
       clipPathUnits="userSpaceOnUse"
       id="clipPath4442">
      <path
         d="m 252.925,765.449 126.41,0 0,-129.469 -126.41,0 0,129.469 z"
         id="path4444"
         inkscape:connector-curvature="0" />
    </clipPath>
    <clipPath
       clipPathUnits="userSpaceOnUse"
       id="clipPath4470">
      <path
         d="m 291.728,726.021 49.278,0 0,-49.278 -49.278,0 0,49.278 z"
         id="path4472"
         inkscape:connector-curvature="0" />
    </clipPath>
    <clipPath
       clipPathUnits="userSpaceOnUse"
       id="clipPath4510">
      <path
         d="m 292.975,724.693 42.559,0 0,-43.222 -42.559,0 0,43.222 z"
         id="path4512"
         inkscape:connector-curvature="0" />
    </clipPath>
    <clipPath
       clipPathUnits="userSpaceOnUse"
       id="clipPath4538">
      <path
         d="m 73.3772,697.93 4.3561,0 0,-4.356 -4.3561,0 0,4.356 z"
         id="path4540"
         inkscape:connector-curvature="0" />
    </clipPath>
  </defs>
  <sodipodi:namedview
     id="base"
     pagecolor="#ffffff"
     bordercolor="#666666"
     borderopacity="1.0"
     inkscape:pageopacity="0.0"
     inkscape:pageshadow="2"
     inkscape:zoom="0.98994949"
     inkscape:cx="415.74478"
     inkscape:cy="-65.171327"
     inkscape:document-units="px"
     inkscape:current-layer="g5718"
     showgrid="false"
     inkscape:window-width="1920"
     inkscape:window-height="1027"
     inkscape:window-x="-8"
     inkscape:window-y="-8"
     inkscape:window-maximized="1"
     fit-margin-top="0"
     fit-margin-left="0"
     fit-margin-right="0"
     fit-margin-bottom="0" />
  <metadata
     id="metadata5862">
    <rdf:RDF>
      <cc:Work
         rdf:about="">
        <dc:format>image/svg+xml</dc:format>
        <dc:type
           rdf:resource="http://purl.org/dc/dcmitype/StillImage" />
        <dc:title></dc:title>
      </cc:Work>
    </rdf:RDF>
  </metadata>
  <g
     inkscape:label="Layer 1"
     inkscape:groupmode="layer"
     id="layer1"
     transform="translate(-2.9572895,-3.8059875)">
    <g
       transform="matrix(1.25,0,0,-1.25,90.293462,1035.3679)"
       id="g5718">
      <g
         id="g6007">
        <g
           id="g4422"
           transform="translate(-60.580038,774.44223)">
          <path
             d="M 0,0 -1.1,0 C -2.145,0 -3,0.855 -3,1.901 l 0,23.969 c 0,1.045 0.855,1.9 1.9,1.9 l 1.1,0 c 1.045,0 1.901,-0.855 1.901,-1.9 l 0,-23.969 C 1.901,0.855 1.045,0 0,0"
             style="fill:#545454;fill-opacity:1;fill-rule:nonzero;stroke:none"
             id="path4424"
             inkscape:connector-curvature="0" />
        </g>
        <g
           id="g4426"
           transform="translate(-39.343938,774.11543)">
          <path
             d="M 0,0 -1.1,0 C -2.145,0 -3,0.855 -3,1.901 l 0,23.969 c 0,1.045 0.855,1.9 1.9,1.9 l 1.1,0 c 1.045,0 1.9,-0.855 1.9,-1.9 L 1.9,1.901 C 1.9,0.855 1.045,0 0,0"
             style="fill:#545454;fill-opacity:1;fill-rule:nonzero;stroke:none"
             id="path4428"
             inkscape:connector-curvature="0" />
        </g>
        <g
           style="fill:#ffd42a"
           id="g4430"
           transform="translate(171.65036,673.24393)">
          <path
             d="m 0,0 -38.119,0 c -9.233,0 -16.744,7.511 -16.744,16.744 l 0,72.693 c 0,6.08 -4.946,11.026 -11.026,11.026 -6.094,0 -11.041,-4.946 -11.041,-11.026 l 0,-49.824 c 0,-9.232 -7.336,-16.743 -16.354,-16.743 -9.018,0 -16.354,7.511 -16.354,16.743 l 0,49.007 c 0,6.08 -4.947,11.026 -11.027,11.026 l -0.808,0 c -6.08,0 -11.026,-4.946 -11.026,-11.026 l 0,-47.373 c 0,-9.233 -7.511,-16.744 -16.744,-16.744 -9.247,0 -16.758,7.511 -16.758,16.744 l 0,48.19 c 0,6.08 -4.594,11.026 -10.24,11.026 -5.646,0 -10.24,-4.946 -10.24,-11.026 l 0,-49.007 c 0,-9.232 -7.511,-16.744 -16.743,-16.744 l -5.053,0 c -9.233,0 -16.744,7.512 -16.744,16.744 l 0,36.755 5.718,0 0,-36.755 c 0,-6.08 4.946,-11.026 11.026,-11.026 l 5.053,0 c 6.079,0 11.026,4.946 11.026,11.026 l 0,49.007 c 0,9.232 7.158,16.743 15.957,16.743 8.799,0 15.957,-7.511 15.957,-16.743 l 0,-48.19 c 0,-6.08 4.947,-11.026 11.027,-11.026 6.094,0 11.041,4.946 11.041,11.026 l 0,47.373 c 0,9.232 7.511,16.744 16.743,16.744 l 0.808,0 c 9.233,0 16.744,-7.512 16.744,-16.744 l 0,-49.007 c 0,-6.08 4.772,-11.026 10.637,-11.026 5.865,0 10.637,4.946 10.637,11.026 l 0,49.824 c 0,9.232 7.511,16.743 16.744,16.743 9.246,0 16.757,-7.511 16.757,-16.743 l 0,-72.693 c 0,-6.08 4.947,-11.027 11.027,-11.027 L 0,5.717 c 6.08,0 11.026,4.947 11.026,11.027 l 0,13.885 5.718,0 0,-13.885 C 16.744,7.511 9.233,0 0,0"
             style="fill:#ffd42a;fill-opacity:1;fill-rule:nonzero;stroke:none"
             id="path4432"
             inkscape:connector-curvature="0" />
        </g>
        <g
           id="g4434"
           transform="translate(248.31096,695.78153)">
          <path
             d="m 0,0 -115.406,0 c -3.026,0 -5.502,2.476 -5.502,5.502 l 0,118.464 c 0,3.027 2.476,5.502 5.502,5.502 l 115.406,0 c 3.026,0 5.502,-2.475 5.502,-5.502 l 0,-118.464 C 5.502,2.476 3.026,0 0,0"
             style="fill:#c8c8c8;fill-opacity:1;fill-rule:nonzero;stroke:none"
             id="path4436"
             inkscape:connector-curvature="0" />
        </g>
        <g
           transform="translate(-126.06704,58.201031)"
           id="g4438">
          <g
             id="g4440" />
          <g
             id="g4446">
            <g
               clip-path="url(#clipPath4442)"
               id="g4448"
               style="opacity:0.17999303">
              <g
                 transform="translate(320.5871,710.775)"
                 id="g4450">
                <path
                   d="m 0,0 8.18,-9.219 50.568,55.736 0,3.663 c 0,2.472 -2.022,4.494 -4.494,4.494 l -117.422,0 c -1.953,0 -3.621,-1.265 -4.237,-3.014 L -10.903,-12.017 0,0 Z"
                   style="fill:#c8c8c8;fill-opacity:1;fill-rule:nonzero;stroke:none"
                   id="path4452"
                   inkscape:connector-curvature="0" />
              </g>
              <g
                 transform="translate(328.7674,701.556)"
                 id="g4454">
                <path
                   d="M 0,0 -8.18,9.219 -19.083,-2.798 -74.682,-64.079 c 0.824,-0.915 2.013,-1.497 3.334,-1.497 l 117.422,0 c 2.472,0 4.494,2.023 4.494,4.494 l 0,4.093 L 0,0 Z"
                   style="fill:#c8c8c8;fill-opacity:1;fill-rule:nonzero;stroke:none"
                   id="path4456"
                   inkscape:connector-curvature="0" />
              </g>
            </g>
          </g>
        </g>
        <g
           id="g4458"
           transform="translate(227.32796,718.30463)">
          <path
             d="m 0,0 -73.44,0 c -2.472,0 -4.494,2.022 -4.494,4.494 l 0,75.434 c 0,2.472 2.022,4.494 4.494,4.494 l 73.44,0 c 2.472,0 4.494,-2.022 4.494,-4.494 l 0,-75.434 C 4.494,2.022 2.472,0 0,0"
             style="fill:#e0e0e0;fill-opacity:1;fill-rule:nonzero;stroke:none"
             id="path4460"
             inkscape:connector-curvature="0" />
        </g>
        <g
           id="g4462"
           transform="translate(227.32796,718.30463)">
          <path
             d="m 0,0 c 0,0 0.079,0.004 0.236,0.013 0.157,0 0.389,0.033 0.692,0.088 0.591,0.132 1.503,0.452 2.329,1.325 0.407,0.433 0.777,1.004 1.006,1.7 0.246,0.697 0.215,1.51 0.211,2.373 -0.005,1.731 -0.01,3.72 -0.015,5.948 -0.023,8.913 -0.055,21.646 -0.093,36.925 -0.019,7.64 -0.04,15.916 -0.062,24.67 -0.006,2.189 -0.011,4.407 -0.017,6.653 0.036,1.092 -0.315,2.166 -1.028,2.993 -0.694,0.826 -1.736,1.38 -2.802,1.486 -4.57,0.037 -9.284,-0.01 -14.053,-0.011 -19.099,-0.047 -39.472,-0.098 -59.844,-0.148 -1.162,0.008 -2.305,-0.519 -3.073,-1.392 -0.384,-0.435 -0.682,-0.949 -0.85,-1.505 -0.081,-0.289 -0.136,-0.544 -0.162,-0.841 -0.006,-0.15 -0.023,-0.337 -0.02,-0.456 l -0.001,-0.477 c -0.006,-2.544 -0.013,-5.086 -0.019,-7.623 -0.013,-5.073 -0.025,-10.126 -0.038,-15.14 -0.025,-10.027 -0.05,-19.895 -0.073,-29.444 -0.012,-4.775 -0.024,-9.47 -0.036,-14.066 -0.005,-2.298 -0.011,-4.571 -0.017,-6.816 0.031,-1.127 -0.131,-2.259 0.264,-3.245 0.364,-0.996 1.109,-1.838 2.036,-2.328 0.458,-0.246 0.977,-0.408 1.479,-0.464 0.534,-0.055 1.063,-0.029 1.609,-0.037 1.079,-0.003 2.15,-0.006 3.213,-0.008 2.127,-0.006 4.221,-0.011 6.28,-0.016 4.118,-0.01 8.097,-0.02 11.917,-0.03 C -20.373,0.051 0,0 0,0 m 0,0 c 0,0 -20.373,-0.051 -50.931,-0.127 -3.82,-0.01 -7.799,-0.02 -11.917,-0.03 -2.059,-0.005 -4.153,-0.01 -6.28,-0.016 -1.063,-0.002 -2.134,-0.005 -3.213,-0.008 -0.533,0.006 -1.089,-0.022 -1.637,0.03 -0.578,0.062 -1.119,0.233 -1.627,0.499 -1.011,0.528 -1.826,1.438 -2.23,2.525 -0.205,0.54 -0.3,1.127 -0.3,1.702 -0.002,0.558 -0.003,1.118 -0.004,1.68 -0.006,2.245 -0.012,4.518 -0.018,6.816 -0.011,4.596 -0.023,9.291 -0.035,14.066 -0.023,9.549 -0.048,19.417 -0.073,29.444 -0.013,5.014 -0.025,10.067 -0.038,15.14 -0.006,2.537 -0.013,5.079 -0.019,7.623 l -10e-4,0.477 c -0.002,0.199 0.012,0.329 0.018,0.496 0.024,0.339 0.098,0.708 0.191,1.031 0.198,0.664 0.549,1.28 1.004,1.8 0.907,1.045 2.276,1.685 3.67,1.681 20.372,-0.05 40.745,-0.1 59.844,-0.148 4.78,-0.023 9.458,0.002 14.077,-0.06 C 1.707,84.494 2.819,83.879 3.588,82.967 4.366,82.065 4.747,80.846 4.701,79.695 4.695,77.449 4.689,75.231 4.684,73.042 4.662,64.288 4.641,56.012 4.622,48.372 4.583,33.093 4.551,20.36 4.529,11.447 4.523,9.219 4.518,7.23 4.514,5.499 4.514,4.638 4.541,3.819 4.29,3.117 4.056,2.418 3.681,1.846 3.271,1.413 2.436,0.541 1.521,0.226 0.929,0.096 0.625,0.043 0.393,0.011 0.236,0.011 0.079,0.004 0,0 0,0"
             style="fill:#ffffff;fill-opacity:1;fill-rule:nonzero;stroke:none"
             id="path4464"
             inkscape:connector-curvature="0" />
        </g>
        <g
           transform="translate(-126.06704,59.801031)"
           id="g4466">
          <g
             id="g4468" />
          <g
             id="g4474">
            <g
               clip-path="url(#clipPath4470)"
               id="g4476"
               style="opacity:0.47999603">
              <g
                 transform="translate(341.0064,701.3821)"
                 id="g4478">
                <path
                   d="m 0,0 c 0,-13.608 -11.031,-24.639 -24.639,-24.639 -13.608,0 -24.64,11.031 -24.64,24.639 0,13.608 11.032,24.639 24.64,24.639 C -11.031,24.639 0,13.608 0,0"
                   style="fill:#949494;fill-opacity:1;fill-rule:nonzero;stroke:none"
                   id="path4480"
                   inkscape:connector-curvature="0" />
              </g>
            </g>
          </g>
        </g>
        <g
           id="g4482"
           transform="translate(211.92476,763.08793)">
          <path
             d="M 0,0 1.629,0 C 0.647,11.26 -8.29,20.238 -19.533,21.279 l 0,-1.746 -4.051,0 0,1.771 C -34.981,20.408 -44.082,11.369 -45.074,0 l 1.957,0 0,-4.051 -1.962,0 c 0.959,-11.404 10.074,-20.48 21.495,-21.378 l 0,1.845 4.051,0 0,-1.82 C -8.265,-24.36 0.685,-15.346 1.635,-4.051 L 0,-4.051 0,0 Z"
             style="fill:#f8f8f8;fill-opacity:1;fill-rule:nonzero;stroke:none"
             id="path4484"
             inkscape:connector-curvature="0" />
        </g>
        <g
           style="fill:#ffdd55"
           id="g4486"
           transform="translate(192.39166,779.83573)">
          <path
             d="m 0,0 0,4.531 c -0.721,0.067 -1.451,0.106 -2.189,0.106 -0.628,0 -1.247,-0.032 -1.862,-0.081 L -4.051,0 0,0 Z"
             style="fill:#ffdd55;fill-opacity:1;fill-rule:nonzero;stroke:none"
             id="path4488"
             inkscape:connector-curvature="0" />
        </g>
        <g
           style="fill:#ffdd55"
           id="g4490"
           transform="translate(188.34036,741.93613)">
          <path
             d="m 0,0 0,-4.277 c 0.615,-0.049 1.235,-0.081 1.862,-0.081 0.739,0 1.468,0.039 2.189,0.105 L 4.051,0 0,0 Z"
             style="fill:#ffdd55;fill-opacity:1;fill-rule:nonzero;stroke:none"
             id="path4492"
             inkscape:connector-curvature="0" />
        </g>
        <g
           id="g4494"
           transform="translate(181.86006,760.84283)">
          <path
             d="m 0,0 c 0,-1.917 -1.554,-3.471 -3.471,-3.471 -1.917,0 -3.472,1.554 -3.472,3.471 0,1.917 1.555,3.471 3.472,3.471 C -1.554,3.471 0,1.917 0,0"
             style="fill:#000000;fill-opacity:1;fill-rule:nonzero;stroke:none"
             id="path4496"
             inkscape:connector-curvature="0" />
        </g>
        <g
           id="g4498"
           transform="translate(193.90746,760.84283)">
          <path
             d="m 0,0 c 0,-1.917 -1.554,-3.471 -3.471,-3.471 -1.917,0 -3.472,1.554 -3.472,3.471 0,1.917 1.555,3.471 3.472,3.471 C -1.554,3.471 0,1.917 0,0"
             style="fill:#949494;fill-opacity:1;fill-rule:nonzero;stroke:none"
             id="path4500"
             inkscape:connector-curvature="0" />
        </g>
        <g
           id="g4502"
           transform="translate(205.95486,760.84283)">
          <path
             d="m 0,0 c 0,-1.917 -1.554,-3.471 -3.471,-3.471 -1.917,0 -3.472,1.554 -3.472,3.471 0,1.917 1.555,3.471 3.472,3.471 C -1.554,3.471 0,1.917 0,0"
             style="fill:#000000;fill-opacity:1;fill-rule:nonzero;stroke:none"
             id="path4504"
             inkscape:connector-curvature="0" />
        </g>
        <g
           transform="translate(-137.98684,67.882251)"
           id="g4506">
          <g
             id="g4508" />
          <g
             transform="translate(11.769801,-8.022047)"
             id="g4514">
            <g
               clip-path="url(#clipPath4510)"
               id="g4516"
               style="opacity:0.08999628">
              <g
                 transform="translate(298.7856,695.0468)"
                 id="g4518">
                <path
                   d="m 0,0 c 0,13.114 10.468,23.745 23.381,23.745 4.972,0 9.578,-1.581 13.367,-4.268 -4.226,6.146 -11.237,10.17 -19.178,10.17 -12.913,0 -23.381,-10.631 -23.381,-23.746 0,-8.064 3.962,-15.185 10.014,-19.477 C 1.557,-9.728 0,-5.05 0,0"
                   style="fill:#949494;fill-opacity:1;fill-rule:nonzero;stroke:none"
                   id="path4520"
                   inkscape:connector-curvature="0" />
              </g>
            </g>
          </g>
        </g>
        <g
           id="g4522"
           transform="translate(-67.777138,779.01603)">
          <path
             d="m 0,0 0,-11.026 c 0,-9.659 7.902,-17.561 17.561,-17.561 9.658,0 17.56,7.902 17.56,17.561 L 35.121,0 0,0 Z"
             style="fill:#e0e0e0;fill-opacity:1;fill-rule:nonzero;stroke:none"
             id="path4524"
             inkscape:connector-curvature="0" />
        </g>
        <g
           id="g4526"
           transform="translate(-67.368938,778.60763)">
          <path
             d="m 0,0 0,-10.618 c 0,-9.458 7.694,-17.152 17.152,-17.152 9.458,0 17.152,7.694 17.152,17.152 L 34.304,0 0,0 Z m 17.152,-28.587 c -9.908,0 -17.969,8.061 -17.969,17.969 l 0,11.435 35.938,0 0,-11.435 c 0,-9.908 -8.061,-17.969 -17.969,-17.969"
             style="fill:#ffffff;fill-opacity:1;fill-rule:nonzero;stroke:none"
             id="path4528"
             inkscape:connector-curvature="0" />
        </g>
        <g
           id="g4530"
           transform="translate(-32.776938,778.26443)">
          <path
             d="m 0,0 -34.879,0 c -1.217,0 -2.213,0.996 -2.213,2.213 l 0,1.28 c 0,1.217 0.996,2.213 2.213,2.213 L 0,5.706 c 1.217,0 2.213,-0.996 2.213,-2.213 l 0,-1.28 C 2.213,0.996 1.217,0 0,0"
             style="fill:#c8c8c8;fill-opacity:1;fill-rule:nonzero;stroke:none"
             id="path4532"
             inkscape:connector-curvature="0" />
        </g>
        <g
           transform="translate(-126.06704,59.801031)"
           id="g4534">
          <g
             id="g4536" />
          <g
             id="g4542">
            <g
               clip-path="url(#clipPath4538)"
               id="g4544"
               style="opacity:0.41999799">
              <g
                 transform="translate(77.7333,695.7516)"
                 id="g4546">
                <path
                   d="m 0,0 c 0,-1.203 -0.975,-2.178 -2.178,-2.178 -1.203,0 -2.178,0.975 -2.178,2.178 0,1.203 0.975,2.178 2.178,2.178 C -0.975,2.178 0,1.203 0,0"
                   style="fill:#545454;fill-opacity:1;fill-rule:nonzero;stroke:none"
                   id="path4548"
                   inkscape:connector-curvature="0" />
              </g>
            </g>
          </g>
        </g>
        <g
           id="g4550"
           transform="translate(-65.817938,776.05463)">
          <path
             d="m 0,0 c 0,0 0.488,0.029 1.341,0.079 0.853,0.033 2.072,0.113 3.535,0.15 1.463,0.036 3.17,0.104 4.998,0.13 1.829,0.034 3.78,0.041 5.73,0.049 C 17.555,0.4 19.505,0.394 21.334,0.36 23.162,0.335 24.869,0.266 26.332,0.23 27.795,0.194 29.014,0.112 29.867,0.08 30.721,0.029 31.208,0 31.208,0 c 0,0 -0.487,-0.029 -1.341,-0.079 -0.853,-0.033 -2.072,-0.114 -3.535,-0.151 -1.463,-0.036 -3.17,-0.105 -4.998,-0.13 -1.829,-0.034 -3.779,-0.04 -5.73,-0.048 -1.95,0.009 -3.901,0.015 -5.73,0.049 -1.828,0.026 -3.535,0.094 -4.998,0.13 -1.463,0.037 -2.682,0.117 -3.535,0.15 C 0.488,-0.029 0,0 0,0"
             style="fill:#81a2a1;fill-opacity:1;fill-rule:nonzero;stroke:none"
             id="path4552"
             inkscape:connector-curvature="0" />
        </g>
        <g
           id="g4554"
           transform="translate(-44.053838,750.12453)">
          <path
             d="m 0,0 -12.589,0 c -0.3,0 -0.545,0.245 -0.545,0.545 l 0,0.316 c 0,0.3 0.245,0.545 0.545,0.545 L 0,1.406 c 0.3,0 0.545,-0.245 0.545,-0.545 l 0,-0.316 C 0.545,0.245 0.3,0 0,0"
             style="fill:#c8c8c8;fill-opacity:1;fill-rule:nonzero;stroke:none"
             id="path4556"
             inkscape:connector-curvature="0" />
        </g>
      </g>
    </g>
  </g>
</svg>
